<svg width="156" height="48" viewBox="0 0 156 48" fill="none" xmlns="http://www.w3.org/2000/svg">
<path d="M0 12.8C0 5.73075 5.73076 0 12.8 0H35.2C42.2692 0 48 5.73076 48 12.8V35.2C48 42.2692 42.2692 48 35.2 48H12.8C5.73075 48 0 42.2692 0 35.2V12.8Z" fill="url(#paint0_radial_375_15246)"/>
<path fill-rule="evenodd" clip-rule="evenodd" d="M15.4927 18.4925C15.3661 19.2093 15.3 19.9469 15.3 20.7C15.3 27.3052 20.3826 32.7234 26.8502 33.2569C25.1402 35.017 22.7478 36.1105 20.1 36.1105C14.9027 36.1105 10.6895 31.8973 10.6895 26.7C10.6895 23.1765 12.626 20.1052 15.4927 18.4925ZM16.9267 14.5029C11.5041 15.9097 7.5 20.8373 7.5 26.7C7.5 33.6588 13.1412 39.3 20.1 39.3C24.8062 39.3 28.9097 36.7199 31.0733 32.897C36.4959 31.4902 40.5 26.5627 40.5 20.7C40.5 13.7412 34.8588 8.09998 27.9 8.09998C23.1938 8.09998 19.0903 10.6801 16.9267 14.5029ZM21.1498 14.1431C22.8598 12.383 25.2522 11.2894 27.9 11.2894C33.0973 11.2894 37.3105 15.5027 37.3105 20.7C37.3105 24.2235 35.374 27.2947 32.5073 28.9074C32.6339 28.1907 32.7 27.4531 32.7 26.7C32.7 20.0947 27.6174 14.6765 21.1498 14.1431ZM28.8935 30.0587C28.567 30.0929 28.2355 30.1105 27.9 30.1105C22.7027 30.1105 18.4895 25.8973 18.4895 20.7C18.4895 19.5167 18.7079 18.3844 19.1065 17.3413C19.433 17.307 19.7645 17.2894 20.1 17.2894C25.2973 17.2894 29.5105 21.5027 29.5105 26.7C29.5105 27.8833 29.2921 29.0155 28.8935 30.0587Z" fill="#679BFF"/>
<path d="M68.9952 35.7648C66.8151 35.7648 64.8386 35.3132 63.066 34.4101C61.3137 33.4874 59.9281 32.2211 58.9093 30.6113C57.9109 28.9818 57.4117 27.1461 57.4117 25.1044C57.4117 23.0626 57.9109 21.2368 58.9093 19.6269C59.9281 17.9975 61.3137 16.7312 63.066 15.8281C64.8386 14.9054 66.8252 14.444 69.0258 14.444C70.88 14.444 72.5508 14.7581 74.0382 15.3864C75.546 16.0146 76.8093 16.9177 77.828 18.0956L74.6495 20.9227C73.2028 19.3128 71.4097 18.5079 69.2703 18.5079C67.9459 18.5079 66.7641 18.7926 65.725 19.3619C64.6858 19.9116 63.8708 20.6871 63.2799 21.6883C62.7094 22.6896 62.4241 23.8283 62.4241 25.1044C62.4241 26.3805 62.7094 27.5192 63.2799 28.5204C63.8708 29.5217 64.6858 30.307 65.725 30.8763C66.7641 31.426 67.9459 31.7009 69.2703 31.7009C71.4097 31.7009 73.2028 30.8861 74.6495 29.2566L77.828 32.0837C76.8093 33.2813 75.546 34.1942 74.0382 34.8224C72.5304 35.4506 70.8494 35.7648 68.9952 35.7648Z" fill="#090967"/>
<path d="M79.6129 19.568H84.3808V35.4114H79.6129V19.568ZM81.9968 17.3594C81.1207 17.3594 80.4075 17.114 79.8574 16.6232C79.3073 16.1324 79.0322 15.5238 79.0322 14.7974C79.0322 14.071 79.3073 13.4624 79.8574 12.9716C80.4075 12.4808 81.1207 12.2354 81.9968 12.2354C82.873 12.2354 83.5861 12.4709 84.1363 12.9421C84.6864 13.4133 84.9615 14.0023 84.9615 14.709C84.9615 15.4747 84.6864 16.1127 84.1363 16.6232C83.5861 17.114 82.873 17.3594 81.9968 17.3594Z" fill="#090967"/>
<path d="M92.1372 21.6589C92.7077 20.8932 93.4718 20.3141 94.4294 19.9214C95.4074 19.5288 96.5281 19.3325 97.7914 19.3325V23.5731C97.2616 23.5338 96.905 23.5142 96.7217 23.5142C95.3565 23.5142 94.2868 23.8872 93.5125 24.6332C92.7382 25.3596 92.3511 26.459 92.3511 27.9314V35.4114H87.5832V19.568H92.1372V21.6589Z" fill="#090967"/>
<path d="M107.201 35.647C105.449 35.647 103.87 35.3034 102.464 34.6163C101.078 33.9095 99.9881 32.9377 99.1935 31.7009C98.4192 30.464 98.0321 29.0603 98.0321 27.4897C98.0321 25.9191 98.4192 24.5154 99.1935 23.2786C99.9881 22.0417 101.078 21.0797 102.464 20.3926C103.87 19.6858 105.449 19.3325 107.201 19.3325C108.933 19.3325 110.441 19.6858 111.724 20.3926C113.028 21.0797 113.976 22.0712 114.567 23.3669L110.869 25.2811C110.013 23.8283 108.78 23.1019 107.17 23.1019C105.928 23.1019 104.899 23.4945 104.084 24.2798C103.269 25.0651 102.861 26.1351 102.861 27.4897C102.861 28.8443 103.269 29.9143 104.084 30.6996C104.899 31.4849 105.928 31.8775 107.17 31.8775C108.801 31.8775 110.033 31.1512 110.869 29.6984L114.567 31.642C113.976 32.8984 113.028 33.8801 111.724 34.5868C110.441 35.2936 108.933 35.647 107.201 35.647Z" fill="#090967"/>
<path d="M115.97 13.5605H120.738V35.4114H115.97V13.5605Z" fill="#090967"/>
<path d="M140.047 27.5486C140.047 27.6075 140.017 28.0198 139.956 28.7855H127.516C127.74 29.7671 128.27 30.5425 129.106 31.1119C129.941 31.6812 130.98 31.9659 132.223 31.9659C133.079 31.9659 133.833 31.8481 134.485 31.6125C135.157 31.3573 135.779 30.9646 136.349 30.4346L138.886 33.0849C137.337 34.793 135.076 35.647 132.101 35.647C130.247 35.647 128.606 35.3034 127.18 34.6163C125.754 33.9095 124.654 32.9377 123.879 31.7009C123.105 30.464 122.718 29.0603 122.718 27.4897C122.718 25.9388 123.095 24.5449 123.849 23.308C124.623 22.0515 125.672 21.0797 126.997 20.3926C128.342 19.6858 129.839 19.3325 131.49 19.3325C133.099 19.3325 134.556 19.6662 135.86 20.3337C137.164 21.0012 138.183 21.9632 138.916 23.2197C139.67 24.4565 140.047 25.8995 140.047 27.5486ZM131.52 22.8074C130.44 22.8074 129.534 23.1019 128.8 23.6908C128.066 24.2798 127.618 25.0847 127.455 26.1056H135.554C135.391 25.1044 134.943 24.3093 134.21 23.7203C133.476 23.1117 132.58 22.8074 131.52 22.8074Z" fill="#090967"/>
<path d="M147.531 35.647C146.166 35.647 144.831 35.4899 143.527 35.1758C142.223 34.842 141.184 34.4298 140.41 33.9389L141.999 30.6407C142.733 31.0923 143.619 31.4653 144.658 31.7598C145.697 32.0346 146.716 32.172 147.714 32.172C149.732 32.172 150.74 31.691 150.74 30.7291C150.74 30.2775 150.465 29.9536 149.915 29.7573C149.365 29.5609 148.519 29.3941 147.378 29.2566C146.033 29.0603 144.923 28.8345 144.047 28.5793C143.171 28.3241 142.407 27.8725 141.755 27.2247C141.123 26.5768 140.807 25.6541 140.807 24.4565C140.807 23.4553 141.103 22.5718 141.693 21.8061C142.305 21.0208 143.181 20.4122 144.322 19.9803C145.483 19.5484 146.848 19.3325 148.417 19.3325C149.579 19.3325 150.73 19.4601 151.871 19.7153C153.032 19.9509 153.99 20.2846 154.744 20.7165L153.155 23.9853C151.708 23.2 150.129 22.8074 148.417 22.8074C147.399 22.8074 146.634 22.9448 146.125 23.2197C145.616 23.4945 145.361 23.8479 145.361 24.2798C145.361 24.7706 145.636 25.1142 146.186 25.3105C146.736 25.5068 147.613 25.6933 148.815 25.87C150.159 26.086 151.26 26.3216 152.116 26.5768C152.971 26.8124 153.715 27.2541 154.347 27.902C154.978 28.5499 155.294 29.453 155.294 30.6113C155.294 31.5929 154.988 32.4665 154.377 33.2322C153.766 33.9978 152.869 34.5966 151.688 35.0285C150.526 35.4408 149.141 35.647 147.531 35.647Z" fill="#090967"/>
<defs>
<radialGradient id="paint0_radial_375_15246" cx="0" cy="0" r="1" gradientUnits="userSpaceOnUse" gradientTransform="translate(4.2 45) rotate(-40.7001) scale(56.5864)">
<stop stop-color="#11118C"/>
<stop offset="1" stop-color="#050557"/>
</radialGradient>
</defs>
</svg>
