<svg
    width="41"
    height="40"
    viewBox="0 0 41 40"
    fill="none"
    xmlns="http://www.w3.org/2000/svg"
>
    <path
        d="M0.5 10.6667C0.5 4.77563 5.27563 0 11.1667 0H29.8333C35.7244 0 40.5 4.77563 40.5 10.6667V29.3333C40.5 35.2244 35.7244 40 29.8333 40H11.1667C5.27563 40 0.5 35.2244 0.5 29.3333V10.6667Z"
        fill="#FFFFFF"
    />
    <path
        fillRule="evenodd"
        clipRule="evenodd"
        d="M14.9496 16.0858C14.8632 16.5745 14.8182 17.0774 14.8182 17.5909C14.8182 22.0945 18.2836 25.7887 22.6933 26.1524C21.5274 27.3525 19.8962 28.0981 18.0909 28.0981C14.5473 28.0981 11.6746 25.2254 11.6746 21.6818C11.6746 19.2794 12.995 17.1854 14.9496 16.0858ZM15.9273 13.3657C12.2301 14.3248 9.5 17.6845 9.5 21.6818C9.5 26.4264 13.3463 30.2727 18.0909 30.2727C21.2997 30.2727 24.0975 28.5136 25.5727 25.9071C29.2699 24.9479 32 21.5882 32 17.5909C32 12.8463 28.1537 9 23.4091 9C20.2003 9 17.4025 10.7592 15.9273 13.3657ZM18.8067 13.1203C19.9726 11.9202 21.6038 11.1746 23.4091 11.1746C26.9527 11.1746 29.8254 14.0473 29.8254 17.5909C29.8254 19.9933 28.505 22.0873 26.5504 23.1869C26.6368 22.6982 26.6818 22.1953 26.6818 21.6818C26.6818 17.1782 23.2164 13.484 18.8067 13.1203ZM24.0864 23.9718C23.8639 23.9952 23.6379 24.0072 23.4091 24.0072C19.8655 24.0072 16.9928 21.1345 16.9928 17.5909C16.9928 16.7841 17.1417 16.0121 17.4136 15.3009C17.6361 15.2775 17.8621 15.2656 18.0909 15.2656C21.6345 15.2656 24.5072 18.1382 24.5072 21.6818C24.5072 22.4886 24.3583 23.2606 24.0864 23.9718Z"
        fill="#679BFF"
    />
</svg>