<svg width="164" height="32" viewBox="0 0 164 32" fill="none" xmlns="http://www.w3.org/2000/svg">
<path d="M13.1339 23.1544C11.8864 23.1544 10.6773 22.9771 9.50678 22.6225C8.35165 22.268 7.43525 21.7977 6.75757 21.2119L7.79719 18.8762C8.45946 19.4004 9.26806 19.8321 10.223 20.1712C11.1933 20.495 12.1636 20.6569 13.1339 20.6569C14.3352 20.6569 15.2285 20.4642 15.8138 20.0787C16.4145 19.6933 16.7148 19.1845 16.7148 18.5524C16.7148 18.0899 16.5454 17.7122 16.2066 17.4193C15.8831 17.111 15.4673 16.872 14.959 16.7024C14.4508 16.5328 13.7577 16.3401 12.8798 16.1243C11.6476 15.8313 10.6465 15.5384 9.87643 15.2455C9.12174 14.9526 8.46716 14.4978 7.9127 13.8811C7.37364 13.249 7.10411 12.401 7.10411 11.3373C7.10411 10.4431 7.34284 9.63369 7.82029 8.90909C8.31315 8.16907 9.04473 7.58322 10.015 7.15154C11.0008 6.71987 12.2021 6.50403 13.6191 6.50403C14.6048 6.50403 15.5751 6.62736 16.53 6.87404C17.4849 7.12071 18.3089 7.4753 19.002 7.93781L18.0548 10.2735C17.3463 9.85724 16.607 9.54119 15.8369 9.32535C15.0668 9.10951 14.3198 9.00159 13.596 9.00159C12.41 9.00159 11.5244 9.20201 10.9391 9.60285C10.3693 10.0037 10.0844 10.5356 10.0844 11.1985C10.0844 11.661 10.2461 12.0387 10.5695 12.3317C10.9083 12.6246 11.3319 12.8559 11.8402 13.0254C12.3484 13.195 13.0415 13.3877 13.9194 13.6036C15.1207 13.8811 16.1064 14.174 16.8765 14.4823C17.6466 14.7753 18.3012 15.2301 18.8403 15.8468C19.3947 16.4634 19.672 17.296 19.672 18.3443C19.672 19.2385 19.4255 20.0479 18.9327 20.7725C18.4552 21.4971 17.7236 22.0752 16.7379 22.5069C15.7522 22.9386 14.5509 23.1544 13.1339 23.1544Z" fill="#000033"/>
<path d="M43.0497 22.9232L43.0266 12.1929L37.713 21.0731H36.373L31.0594 12.3317V22.9232H28.1947V6.73528H30.6667L37.0892 17.4655L43.3962 6.73528H45.8682L45.8913 22.9232H43.0497Z" fill="#000033"/>
<path d="M66.2928 19.1768H58.2068L56.6127 22.9232H53.517L60.7943 6.73528H63.7515L71.0519 22.9232H67.9099L66.2928 19.1768ZM65.2993 16.818L62.2498 9.74161L59.2233 16.818H65.2993Z" fill="#000033"/>
<path d="M89.2342 22.9232L85.9306 18.1824C85.7919 18.1979 85.584 18.2056 85.3068 18.2056H81.6566V22.9232H78.6532V6.73528H85.3068C86.7083 6.73528 87.9251 6.96654 88.957 7.42905C90.0043 7.89156 90.8052 8.5545 91.3597 9.41785C91.9141 10.2812 92.1914 11.3064 92.1914 12.4935C92.1914 13.7115 91.891 14.7599 91.2904 15.6386C90.7051 16.5174 89.858 17.1726 88.7491 17.6043L92.4686 22.9232H89.2342ZM89.1649 12.4935C89.1649 11.4606 88.8261 10.6666 88.1484 10.1116C87.4707 9.5566 86.4773 9.2791 85.1682 9.2791H81.6566V15.7311H85.1682C86.4773 15.7311 87.4707 15.4536 88.1484 14.8986C88.8261 14.3282 89.1649 13.5265 89.1649 12.4935Z" fill="#000033"/>
<path d="M104.151 9.2791H98.7913V6.73528H112.514V9.2791H107.155V22.9232H104.151V9.2791Z" fill="#000033"/>
<path d="M130.894 22.9232L127.59 18.1824C127.452 18.1979 127.244 18.2056 126.966 18.2056H123.316V22.9232H120.313V6.73528H126.966C128.368 6.73528 129.585 6.96654 130.617 7.42905C131.664 7.89156 132.465 8.5545 133.019 9.41785C133.574 10.2812 133.851 11.3064 133.851 12.4935C133.851 13.7115 133.551 14.7599 132.95 15.6386C132.365 16.5174 131.518 17.1726 130.409 17.6043L134.128 22.9232H130.894ZM130.825 12.4935C130.825 11.4606 130.486 10.6666 129.808 10.1116C129.13 9.5566 128.137 9.2791 126.828 9.2791H123.316V15.7311H126.828C128.137 15.7311 129.13 15.4536 129.808 14.8986C130.486 14.3282 130.825 13.5265 130.825 12.4935Z" fill="#000033"/>
<path d="M154.885 20.4025V22.9232H142.756V6.73528H154.561V9.25597H145.759V13.4648H153.568V15.9393H145.759V20.4025H154.885Z" fill="#000033"/>
<path d="M103.205 27.2303H101.363V26.3559H106.08V27.2303H104.238V31.9205H103.205V27.2303Z" fill="#000033"/>
<path d="M112.398 31.9205L111.263 30.2908C111.215 30.2961 111.143 30.2988 111.048 30.2988H109.793V31.9205H108.761V26.3559H111.048C111.53 26.3559 111.948 26.4354 112.303 26.5943C112.663 26.7533 112.938 26.9812 113.129 27.278C113.319 27.5748 113.415 27.9272 113.415 28.3353C113.415 28.7539 113.311 29.1143 113.105 29.4164C112.904 29.7185 112.613 29.9437 112.231 30.0921L113.51 31.9205H112.398ZM112.374 28.3353C112.374 27.9802 112.258 27.7073 112.025 27.5165C111.792 27.3257 111.45 27.2303 111 27.2303H109.793V29.4482H111C111.45 29.4482 111.792 29.3528 112.025 29.162C112.258 28.9659 112.374 28.6903 112.374 28.3353Z" fill="#000033"/>
<path d="M120.081 30.6326H117.302L116.754 31.9205H115.69L118.191 26.3559H119.208L121.717 31.9205H120.637L120.081 30.6326ZM119.74 29.8218L118.691 27.3893L117.651 29.8218H119.74Z" fill="#000033"/>
<path d="M124.33 26.3559H125.362V31.9205H124.33V26.3559Z" fill="#000033"/>
<path d="M133.712 26.3559V31.9205H132.862L129.797 28.1524V31.9205H128.772V26.3559H129.622L132.687 30.1239V26.3559H133.712Z" fill="#000033"/>
<path d="M137.107 26.3559H138.14V31.9205H137.107V26.3559Z" fill="#000033"/>
<path d="M146.489 26.3559V31.9205H145.639L142.574 28.1524V31.9205H141.549V26.3559H142.399L145.464 30.1239V26.3559H146.489Z" fill="#000033"/>
<path d="M153.681 29.0746H154.657V31.2924C154.371 31.5203 154.038 31.6952 153.657 31.8171C153.276 31.939 152.884 31.9999 152.481 31.9999C151.915 31.9999 151.404 31.8781 150.949 31.6343C150.493 31.3852 150.136 31.0434 149.877 30.6088C149.617 30.1742 149.487 29.684 149.487 29.1382C149.487 28.5923 149.617 28.1021 149.877 27.6675C150.136 27.2329 150.493 26.8938 150.949 26.65C151.409 26.4009 151.925 26.2764 152.497 26.2764C152.963 26.2764 153.387 26.3532 153.768 26.5069C154.149 26.6606 154.469 26.8858 154.729 27.1826L154.078 27.8186C153.654 27.3946 153.143 27.1826 152.545 27.1826C152.153 27.1826 151.804 27.2647 151.497 27.429C151.195 27.5933 150.957 27.8239 150.782 28.1206C150.612 28.4174 150.528 28.7566 150.528 29.1382C150.528 29.5091 150.612 29.843 150.782 30.1398C150.957 30.4366 151.195 30.6697 151.497 30.8393C151.804 31.0089 152.15 31.0937 152.537 31.0937C152.971 31.0937 153.352 30.9983 153.681 30.8075V29.0746Z" fill="#000033"/>
<path fill-rule="evenodd" clip-rule="evenodd" d="M0 0H164V29.6585H158.458V28.0976H162.441V1.56098H1.55943V28.0976H97.4643V29.6585H0V0Z" fill="#000033"/>
</svg>
